<?xml version="1.0" encoding="utf-8"?>
<!-- Generator: Adobe Illustrator 17.0.0, SVG Export Plug-In . SVG Version: 6.00 Build 0)  -->
<!DOCTYPE svg PUBLIC "-//W3C//DTD SVG 1.1//EN" "http://www.w3.org/Graphics/SVG/1.1/DTD/svg11.dtd">
<svg version="1.1" id="Capa_1" xmlns="http://www.w3.org/2000/svg" xmlns:xlink="http://www.w3.org/1999/xlink" x="0px" y="0px"
	 width="93px" height="93px" viewBox="0 0 93 93" enable-background="new 0 0 93 93" xml:space="preserve">
<path fill="#004D9C" d="M93,81c0,6.627-5.373,12-12,12H12C5.373,93,0,87.627,0,81V12C0,5.373,5.373,0,12,0h69
	c6.627,0,12,5.373,12,12V81z"/>
<path fill="#FFC111" d="M35.056,74.287h-2.314v3.61h-1.643v-7.279c0-0.468,0.372-0.876,0.839-0.876h5.061v1.415h-4.257v1.751h3.19
	v0.54C35.932,73.916,35.524,74.287,35.056,74.287z"/>
<path fill="#FFC111" d="M37.723,70.618c0-0.576,0.276-0.876,0.839-0.876h0.828v8.155h-1.667V70.618z"/>
<path fill="#FFC111" d="M41.082,69.742h0.899l3.322,5.601v-5.601h1.643v8.155h-1.739l-3.322-5.601v5.601h-1.643v-7.279
	C40.242,70.15,40.614,69.742,41.082,69.742z"/>
<path fill="#FFC111" d="M52.659,69.742l2.927,8.155h-1.764l-0.539-1.667h-3.154l-0.54,1.667h-1.787l2.723-7.615
	c0.12-0.36,0.384-0.54,0.791-0.54H52.659z M50.572,74.852h2.243l-1.128-3.467L50.572,74.852z"/>
<path fill="#FFC111" d="M57.233,69.742h0.827v6.656h3.982v1.499h-5.649v-7.279C56.394,70.15,56.766,69.742,57.233,69.742z"/>
<g>
	<path fill="#FFC111" d="M13.818,67.413c-2.506,0-3.754-1.655-3.754-4.198c0-2.626,1.319-4.21,3.898-4.21
		c0.996,0,1.799,0.24,2.411,0.744c0.576,0.516,0.899,1.224,0.983,2.11h-1.007c-0.36,0-0.624-0.168-0.78-0.491
		c-0.275-0.588-0.815-0.888-1.607-0.888c-1.547,0-2.231,1.092-2.231,2.734c0,1.596,0.66,2.723,2.183,2.723
		c1.043,0,1.643-0.576,1.823-1.476h1.619C17.2,66.346,15.881,67.413,13.818,67.413z"/>
	<path fill="#FFC111" d="M19.003,59.137h0.828v5.038c0,1.187,0.528,1.787,1.571,1.799s1.571-0.6,1.571-1.799v-5.038h1.655v5.229
		c0,2.003-1.175,3.047-3.226,3.047c-2.087,0-3.238-0.984-3.238-3.047v-4.354C18.164,59.569,18.548,59.137,19.003,59.137z"/>
	<path fill="#FFC111" d="M29.765,59.137l2.927,8.156h-1.763l-0.54-1.667h-3.154l-0.54,1.667h-1.787l2.722-7.616
		c0.12-0.359,0.384-0.54,0.792-0.54H29.765z M27.678,64.246h2.243l-1.127-3.466L27.678,64.246z"/>
	<path fill="#FFC111" d="M38.837,63.383c0.348,0.12,0.612,0.312,0.78,0.563c0.144,0.276,0.216,0.684,0.251,1.212l0.072,1.595
		c0.012,0.252,0.108,0.432,0.264,0.54h-1.835c-0.084-0.156-0.12-0.324-0.132-0.492c-0.036-0.12-0.06-0.588-0.072-1.379
		c-0.06-0.983-0.24-1.296-1.224-1.296h-1.775v3.167H33.5v-7.28c0-0.468,0.372-0.876,0.839-0.876h3.094
		c1.691,0,2.626,0.648,2.626,2.327C40.06,62.495,39.616,63.167,38.837,63.383z M37.23,60.553h-2.063v2.146h1.967
		c0.792,0,1.235-0.288,1.235-1.079C38.369,60.876,37.973,60.553,37.23,60.553z"/>
	<path fill="#FFC111" d="M41.839,59.137h5.649v1.452h-2.411v6.704H43.41v-6.704H41v-0.576C41,59.545,41.371,59.137,41.839,59.137z"
		/>
	<path fill="#FFC111" d="M47.599,63.215c0-2.494,1.476-4.21,3.898-4.21c2.435,0,3.909,1.739,3.909,4.21
		c0,2.507-1.427,4.198-3.909,4.198S47.599,65.71,47.599,63.215z M49.266,63.215c0,1.596,0.708,2.795,2.231,2.795
		s2.242-1.151,2.242-2.795c0-1.607-0.719-2.759-2.242-2.759S49.266,61.632,49.266,63.215z"/>
	<path fill="#FFC111" d="M61.205,65.026c0-0.396-0.24-0.66-0.744-0.804c-0.479-0.145-1.031-0.288-1.619-0.444
		c-1.595-0.407-2.387-1.151-2.387-2.23c0.036-1.715,1.056-2.555,3.07-2.543c1.919,0,2.915,0.84,3.011,2.531H61.6
		c-0.348,0-0.588-0.168-0.744-0.48c-0.275-0.467-0.768-0.695-1.475-0.695c-0.863,0.012-1.296,0.336-1.331,0.96
		c0,0.516,0.516,0.887,1.583,1.127c0.611,0.144,1.259,0.324,1.942,0.563c0.912,0.313,1.344,0.983,1.296,2.016
		c-0.097,1.595-1.176,2.387-3.238,2.387c-2.159,0-3.25-0.9-3.299-2.675h1.619c0.061,0.863,0.612,1.295,1.68,1.295
		S61.217,65.697,61.205,65.026z"/>
	<path fill="#FFC111" d="M76.216,63.215c0,2.003-0.864,3.49-2.436,3.91c-0.407,0.107-0.983,0.168-1.727,0.168h-2.746v-7.28
		c0-0.563,0.275-0.863,0.839-0.876h2.351C75.088,59.137,76.216,60.612,76.216,63.215z M72.497,60.565H70.95v5.253h1.331
		c1.655,0,2.231-0.888,2.231-2.603C74.512,61.584,74.009,60.565,72.497,60.565z"/>
	<path fill="#FFC111" d="M77.035,60.013c0-0.563,0.276-0.863,0.84-0.876h5.062v1.416h-4.258v1.751h3.178v0.539
		c0.013,0.564-0.275,0.84-0.863,0.84h-2.314v2.111h4.258v1.499h-5.901V60.013z"/>
	<g>
		<path fill="#FFC212" d="M50.267,37.534l0-9.711c-0.469-1.67-2.735-2.236-3.774-2.236c-1.051,0-3.274,0.579-3.752,2.242
			l0.005,9.705c0,0-0.009,1.489-0.006,1.949c0,4.706,3.687,8.373,3.687,8.373l0.056,0.053c2.204-2.059,3.626-4.945,3.764-8.166
			h0.001l0.011-0.517c0,0,0.016-0.665,0-1.691H50.267z"/>
		<path fill="#FFC212" d="M54.639,27.34c-1.169,0-2.297,0.171-3.365,0.486v8.664c0.797-0.974,2.008-1.596,3.365-1.596
			c2.4,0,4.345,1.945,4.345,4.345c0,2.4-1.945,4.345-4.345,4.345c-1.497,0-2.817-0.757-3.598-1.909
			c-0.52,2.686-1.879,5.075-3.792,6.886c2.03,1.612,4.597,2.577,7.39,2.577c6.571,0,11.899-5.327,11.899-11.899
			C66.538,32.668,61.211,27.34,54.639,27.34"/>
		<path fill="#004D9C" d="M43.914,30.613c-0.09-0.249-0.139-0.516-0.139-0.794c0-1.38,1.203-2.499,2.686-2.499
			s2.686,1.119,2.686,2.499c0,0.44-0.185,0.839-0.338,1.213l-1.878,4.327c0,0-0.079,0.337-0.479,0.337
			c-0.4,0-0.479-0.337-0.479-0.337L43.914,30.613z"/>
		<path fill="#FFFFFF" d="M48.013,30.101c0,0.857-0.695,1.552-1.552,1.552c-0.857,0-1.552-0.695-1.552-1.552
			c0-0.857,0.695-1.552,1.552-1.552C47.319,28.55,48.013,29.244,48.013,30.101"/>
		<path fill="#FFC212" d="M42.009,41.675c-0.781,1.152-2.101,1.909-3.598,1.909c-2.4,0-4.345-1.945-4.345-4.345
			c0-2.4,1.945-4.345,4.345-4.345c1.357,0,2.568,0.622,3.365,1.596v-8.664c-1.067-0.314-2.196-0.486-3.365-0.486
			c-6.571,0-11.899,5.327-11.899,11.899c0,6.571,5.327,11.899,11.899,11.899c2.793,0,5.36-0.965,7.39-2.577
			C43.888,46.75,42.529,44.361,42.009,41.675"/>
	</g>
</g>
</svg>
