<?xml version="1.0" encoding="utf-8"?>
<!-- Generator: Adobe Illustrator 17.0.0, SVG Export Plug-In . SVG Version: 6.00 Build 0)  -->
<!DOCTYPE svg PUBLIC "-//W3C//DTD SVG 1.1//EN" "http://www.w3.org/Graphics/SVG/1.1/DTD/svg11.dtd">
<svg version="1.1" id="Capa_1" xmlns="http://www.w3.org/2000/svg" xmlns:xlink="http://www.w3.org/1999/xlink" x="0px" y="0px"
	 width="93px" height="93px" viewBox="0 0 93 93" enable-background="new 0 0 93 93" xml:space="preserve">
<path fill="#004D9C" d="M93,81c0,6.627-5.373,12-12,12H12C5.373,93,0,87.627,0,81V12C0,5.373,5.373,0,12,0h69
	c6.627,0,12,5.373,12,12V81z"/>
<g>
	<g>
		<path fill="#FFC212" d="M65.653,39.759l-2.996-2.972c-0.888,0.887-1.966,1.331-3.234,1.331c-1.268,0-2.346-0.444-3.233-1.331
			c-0.888-0.888-1.331-1.965-1.331-3.234c0-1.268,0.444-2.346,1.331-3.234l-2.973-2.972c-0.587-0.586-1.304-0.88-2.152-0.88
			c-0.848,0-1.565,0.293-2.152,0.88L27.348,48.89c-0.587,0.587-0.88,1.304-0.88,2.152c0,0.848,0.293,1.565,0.88,2.152l2.972,2.996
			c0.888-0.887,1.966-1.331,3.234-1.331c1.268,0,2.346,0.443,3.233,1.331c0.888,0.888,1.331,1.965,1.331,3.234
			c0,1.268-0.444,2.346-1.331,3.234l2.996,2.996c0.587,0.587,1.304,0.88,2.152,0.88c0.848,0,1.566-0.293,2.152-0.88l21.566-21.59
			c0.587-0.586,0.88-1.304,0.88-2.152C66.532,41.063,66.239,40.346,65.653,39.759z M59.209,44.515L44.515,59.208
			c-0.285,0.286-0.642,0.428-1.07,0.428c-0.428,0-0.784-0.142-1.07-0.428l-8.608-8.607c-0.301-0.302-0.452-0.658-0.452-1.07
			c0-0.412,0.15-0.769,0.452-1.07l14.694-14.694c0.286-0.285,0.642-0.428,1.07-0.428c0.428,0,0.784,0.143,1.07,0.428l8.607,8.607
			c0.302,0.301,0.452,0.658,0.452,1.07C59.661,43.857,59.511,44.213,59.209,44.515z"/>
		<path fill="#FFC212" d="M49.533,35.932l7.514,7.513l-13.6,13.6l-7.513-7.513L49.533,35.932z"/>
	</g>
</g>
</svg>
