<?xml version="1.0" encoding="utf-8"?>
<!-- Generator: Adobe Illustrator 17.0.0, SVG Export Plug-In . SVG Version: 6.00 Build 0)  -->
<!DOCTYPE svg PUBLIC "-//W3C//DTD SVG 1.1//EN" "http://www.w3.org/Graphics/SVG/1.1/DTD/svg11.dtd">
<svg version="1.1" id="Capa_1" xmlns="http://www.w3.org/2000/svg" xmlns:xlink="http://www.w3.org/1999/xlink" x="0px" y="0px"
	 width="93px" height="93px" viewBox="0 0 93 93" enable-background="new 0 0 93 93" xml:space="preserve">
<path fill="#004D9C" d="M93,81c0,6.627-5.373,12-12,12H12C5.373,93,0,87.627,0,81V12C0,5.373,5.373,0,12,0h69
	c6.627,0,12,5.373,12,12V81z"/>
<g>
	<g>
		<path fill="#FFC111" d="M35.056,63.743h-2.314v3.61h-1.643v-7.28c0-0.468,0.372-0.876,0.839-0.876h5.061v1.416h-4.257v1.751h3.19
			v0.539C35.932,63.371,35.524,63.743,35.056,63.743z"/>
		<path fill="#FFC111" d="M37.723,60.073c0-0.575,0.276-0.876,0.839-0.876h0.828v8.156h-1.667V60.073z"/>
		<path fill="#FFC111" d="M41.082,59.197h0.899l3.322,5.602v-5.602h1.643v8.156h-1.739l-3.322-5.602v5.602h-1.643v-7.28
			C40.242,59.605,40.614,59.197,41.082,59.197z"/>
		<path fill="#FFC111" d="M52.659,59.197l2.927,8.156h-1.764l-0.539-1.667h-3.154l-0.54,1.667h-1.787l2.723-7.616
			c0.12-0.359,0.384-0.54,0.791-0.54H52.659z M50.572,64.306h2.243l-1.128-3.466L50.572,64.306z"/>
		<path fill="#FFC111" d="M57.233,59.197h0.827v6.657h3.982v1.499h-5.649v-7.28C56.394,59.605,56.766,59.197,57.233,59.197z"/>
	</g>
	<g>
		<path fill="#FFC212" d="M50.242,37.594l0-9.711c-0.469-1.67-2.735-2.236-3.774-2.236c-1.051,0-3.274,0.579-3.752,2.242
			l0.005,9.705c0,0-0.009,1.489-0.006,1.949c0,4.706,3.687,8.373,3.687,8.373l0.056,0.053c2.204-2.059,3.626-4.945,3.764-8.166
			h0.001l0.011-0.517c0,0,0.016-0.665,0-1.691H50.242z"/>
		<path fill="#FFC212" d="M54.614,27.4c-1.169,0-2.297,0.171-3.365,0.486v8.664c0.797-0.974,2.008-1.596,3.365-1.596
			c2.4,0,4.345,1.945,4.345,4.345c0,2.4-1.945,4.345-4.345,4.345c-1.497,0-2.817-0.757-3.598-1.909
			c-0.52,2.686-1.879,5.075-3.792,6.886c2.03,1.612,4.597,2.577,7.39,2.577c6.571,0,11.899-5.327,11.899-11.899
			C66.513,32.728,61.186,27.4,54.614,27.4"/>
		<path fill="#004D9C" d="M43.889,30.673c-0.09-0.249-0.139-0.516-0.139-0.794c0-1.38,1.203-2.499,2.686-2.499
			s2.686,1.119,2.686,2.499c0,0.44-0.185,0.839-0.338,1.213l-1.878,4.327c0,0-0.079,0.337-0.479,0.337
			c-0.4,0-0.479-0.337-0.479-0.337L43.889,30.673z"/>
		<path fill="#FFFFFF" d="M47.988,30.161c0,0.857-0.695,1.552-1.552,1.552c-0.857,0-1.552-0.695-1.552-1.552
			c0-0.857,0.695-1.552,1.552-1.552C47.294,28.61,47.988,29.304,47.988,30.161"/>
		<path fill="#FFC212" d="M41.984,41.735c-0.781,1.152-2.101,1.909-3.598,1.909c-2.4,0-4.345-1.945-4.345-4.345
			c0-2.4,1.945-4.345,4.345-4.345c1.357,0,2.568,0.622,3.365,1.596v-8.664c-1.067-0.314-2.196-0.486-3.365-0.486
			c-6.571,0-11.899,5.327-11.899,11.899c0,6.571,5.327,11.899,11.899,11.899c2.793,0,5.36-0.965,7.39-2.577
			C43.863,46.81,42.504,44.421,41.984,41.735"/>
	</g>
</g>
</svg>
