<?xml version="1.0" encoding="utf-8"?>
<!-- Generator: Adobe Illustrator 17.0.0, SVG Export Plug-In . SVG Version: 6.00 Build 0)  -->
<!DOCTYPE svg PUBLIC "-//W3C//DTD SVG 1.1//EN" "http://www.w3.org/Graphics/SVG/1.1/DTD/svg11.dtd">
<svg version="1.1" id="Capa_1" xmlns="http://www.w3.org/2000/svg" xmlns:xlink="http://www.w3.org/1999/xlink" x="0px" y="0px"
	 width="93px" height="93px" viewBox="0 0 93 93" enable-background="new 0 0 93 93" xml:space="preserve">
<path fill="#004D9C" d="M93,81c0,6.627-5.373,12-12,12H12C5.373,93,0,87.627,0,81V12C0,5.373,5.373,0,12,0h69
	c6.627,0,12,5.373,12,12V81z"/>
<g>
	<path fill="#FFC212" d="M50.97,34.56c1.998,1.253,3.399,3.372,3.654,5.833c0.815,0.381,1.719,0.6,2.678,0.6
		c3.5,0,6.337-2.837,6.337-6.336c0-3.5-2.837-6.337-6.337-6.337C53.835,28.32,51.023,31.106,50.97,34.56z M46.819,47.535
		c3.5,0,6.337-2.837,6.337-6.337s-2.837-6.336-6.337-6.336s-6.338,2.837-6.338,6.337S43.319,47.535,46.819,47.535z M49.507,47.967
		H44.13c-4.474,0-8.114,3.64-8.114,8.114v6.576l0.017,0.103l0.453,0.142c4.27,1.334,7.979,1.779,11.032,1.779
		c5.963,0,9.42-1.7,9.633-1.809l0.423-0.214h0.045v-6.577C57.621,51.607,53.981,47.967,49.507,47.967z M59.991,41.425h-5.336
		c-0.058,2.135-0.969,4.057-2.41,5.44c3.977,1.183,6.886,4.87,6.886,9.226v2.026c5.268-0.193,8.304-1.686,8.504-1.786l0.423-0.215
		h0.045v-6.578C68.104,45.065,64.464,41.425,59.991,41.425z M35.699,40.994c1.24,0,2.393-0.362,3.37-0.978
		c0.311-2.026,1.397-3.796,2.948-5.002c0.006-0.119,0.018-0.236,0.018-0.356c0-3.5-2.837-6.337-6.336-6.337
		c-3.501,0-6.337,2.837-6.337,6.337C29.362,38.156,32.199,40.994,35.699,40.994z M41.39,46.865c-1.434-1.376-2.342-3.288-2.409-5.41
		c-0.198-0.015-0.394-0.03-0.595-0.03H33.01c-4.474,0-8.114,3.64-8.114,8.113v6.577l0.017,0.101l0.453,0.143
		c3.425,1.069,6.482,1.562,9.137,1.717v-1.986C34.504,51.735,37.412,48.048,41.39,46.865z"/>
</g>
</svg>
