<?xml version="1.0" encoding="utf-8"?>
<!-- Generator: Adobe Illustrator 17.0.0, SVG Export Plug-In . SVG Version: 6.00 Build 0)  -->
<!DOCTYPE svg PUBLIC "-//W3C//DTD SVG 1.1//EN" "http://www.w3.org/Graphics/SVG/1.1/DTD/svg11.dtd">
<svg version="1.1" id="Capa_1" xmlns="http://www.w3.org/2000/svg" xmlns:xlink="http://www.w3.org/1999/xlink" x="0px" y="0px"
	 width="93px" height="93px" viewBox="0 0 93 93" enable-background="new 0 0 93 93" xml:space="preserve">
<path fill="#004D9C" d="M93,81c0,6.627-5.373,12-12,12H12C5.373,93,0,87.627,0,81V12C0,5.373,5.373,0,12,0h69
	c6.627,0,12,5.373,12,12V81z"/>
<g>
	<g>
		<path fill="#FFC111" d="M10.877,64.391H8.814v2.902H7.147v-7.28c0-0.468,0.372-0.876,0.839-0.876h2.771
			c1.727,0,2.626,0.924,2.626,2.627C13.383,63.371,12.508,64.391,10.877,64.391z M10.457,62.915
			c0.839,0.012,1.259-0.384,1.259-1.175c0-0.792-0.396-1.188-1.175-1.188H8.838v2.362H10.457z"/>
		<path fill="#FFC111" d="M19.468,63.383c0.348,0.12,0.612,0.312,0.78,0.563c0.144,0.276,0.216,0.684,0.251,1.212l0.072,1.595
			c0.012,0.252,0.108,0.432,0.264,0.54H19c-0.084-0.156-0.12-0.324-0.132-0.492c-0.036-0.12-0.06-0.588-0.072-1.379
			c-0.06-0.983-0.24-1.296-1.223-1.296h-1.775v3.167h-1.667v-7.28c0-0.468,0.372-0.876,0.839-0.876h3.094
			c1.691,0,2.626,0.648,2.626,2.327C20.691,62.495,20.248,63.167,19.468,63.383z M17.861,60.553h-2.063v2.146h1.967
			c0.792,0,1.235-0.288,1.235-1.079C19,60.876,18.605,60.553,17.861,60.553z"/>
		<path fill="#FFC111" d="M21.679,60.013c0-0.563,0.276-0.863,0.839-0.876h5.062v1.416h-4.258v1.751H26.5v0.539
			c0.012,0.564-0.276,0.84-0.863,0.84h-2.315v2.111h4.258v1.499h-5.901V60.013z"/>
		<path fill="#FFC111" d="M29.238,59.137h0.828v6.657h3.982v1.499h-5.649v-7.28C28.399,59.545,28.771,59.137,29.238,59.137z"/>
		<path fill="#FFC111" d="M34.747,60.013c0-0.575,0.276-0.876,0.839-0.876h0.828v8.156h-1.667V60.013z"/>
		<path fill="#FFC111" d="M38.082,59.137h1.619l1.643,6.213l1.595-6.213h2.482v8.156h-1.571v-6.585l-1.667,6.585h-1.703
			l-1.667-6.585v6.585h-1.571v-7.28C37.243,59.545,37.614,59.137,38.082,59.137z"/>
		<path fill="#FFC111" d="M46.254,60.013c0-0.575,0.276-0.876,0.839-0.876h0.828v8.156h-1.667V60.013z"/>
		<path fill="#FFC111" d="M49.614,59.137h0.899l3.322,5.602v-5.602h1.643v8.156H53.74l-3.322-5.602v5.602h-1.644v-7.28
			C48.774,59.545,49.146,59.137,49.614,59.137z"/>
		<path fill="#FFC111" d="M61.191,59.137l2.927,8.156h-1.763l-0.54-1.667h-3.154l-0.54,1.667h-1.786l2.722-7.616
			c0.12-0.359,0.384-0.54,0.792-0.54H61.191z M59.104,64.246h2.243L60.22,60.78L59.104,64.246z"/>
		<path fill="#FFC111" d="M70.263,63.383c0.348,0.12,0.611,0.312,0.779,0.563c0.144,0.276,0.216,0.684,0.252,1.212l0.072,1.595
			c0.012,0.252,0.107,0.432,0.264,0.54h-1.835c-0.084-0.156-0.12-0.324-0.132-0.492c-0.036-0.12-0.061-0.588-0.072-1.379
			c-0.06-0.983-0.24-1.296-1.224-1.296h-1.774v3.167h-1.667v-7.28c0-0.468,0.371-0.876,0.839-0.876h3.095
			c1.69,0,2.626,0.648,2.626,2.327C71.486,62.495,71.043,63.167,70.263,63.383z M68.656,60.553h-2.063v2.146h1.967
			c0.791,0,1.235-0.288,1.235-1.079C69.796,60.876,69.399,60.553,68.656,60.553z"/>
		<path fill="#FFC111" d="M72.474,60.013c0-0.563,0.275-0.863,0.839-0.876h5.062v1.416h-4.258v1.751h3.179v0.539
			c0.012,0.564-0.276,0.84-0.863,0.84h-2.315v2.111h4.258v1.499h-5.9V60.013z"/>
		<path fill="#FFC111" d="M84.183,65.026c0-0.396-0.24-0.66-0.744-0.804c-0.479-0.145-1.031-0.288-1.619-0.444
			c-1.595-0.407-2.387-1.151-2.387-2.23c0.036-1.715,1.056-2.555,3.07-2.543c1.919,0,2.914,0.84,3.011,2.531h-0.936
			c-0.348,0-0.588-0.168-0.744-0.48c-0.275-0.467-0.768-0.695-1.475-0.695c-0.863,0.012-1.296,0.336-1.331,0.96
			c0,0.516,0.516,0.887,1.583,1.127c0.611,0.144,1.259,0.324,1.942,0.563c0.911,0.313,1.344,0.983,1.295,2.016
			c-0.096,1.595-1.175,2.387-3.237,2.387c-2.159,0-3.25-0.9-3.299-2.675h1.619c0.061,0.863,0.612,1.295,1.68,1.295
			S84.195,65.697,84.183,65.026z"/>
	</g>
	<g>
		<path fill="#FFC212" d="M50.23,37.534l0-9.711c-0.469-1.67-2.735-2.236-3.774-2.236c-1.051,0-3.274,0.579-3.752,2.242l0.005,9.705
			c0,0-0.009,1.489-0.006,1.949c0,4.706,3.687,8.373,3.687,8.373l0.056,0.053c2.204-2.059,3.626-4.945,3.764-8.166h0.001
			l0.011-0.517c0,0,0.016-0.665,0-1.691H50.23z"/>
		<path fill="#FFC212" d="M54.602,27.34c-1.169,0-2.297,0.171-3.365,0.486v8.664c0.797-0.974,2.008-1.596,3.365-1.596
			c2.4,0,4.345,1.945,4.345,4.345c0,2.4-1.945,4.345-4.345,4.345c-1.497,0-2.817-0.757-3.598-1.909
			c-0.52,2.686-1.879,5.075-3.792,6.886c2.03,1.612,4.597,2.577,7.39,2.577c6.571,0,11.899-5.327,11.899-11.899
			C66.501,32.668,61.173,27.34,54.602,27.34"/>
		<path fill="#004D9C" d="M43.877,30.613c-0.09-0.249-0.139-0.516-0.139-0.794c0-1.38,1.203-2.499,2.686-2.499
			s2.686,1.119,2.686,2.499c0,0.44-0.185,0.839-0.338,1.213l-1.878,4.327c0,0-0.079,0.337-0.479,0.337
			c-0.4,0-0.479-0.337-0.479-0.337L43.877,30.613z"/>
		<path fill="#FFFFFF" d="M47.976,30.101c0,0.857-0.695,1.552-1.552,1.552s-1.552-0.695-1.552-1.552
			c0-0.857,0.695-1.552,1.552-1.552S47.976,29.244,47.976,30.101"/>
		<path fill="#FFC212" d="M41.972,41.675c-0.781,1.152-2.101,1.909-3.598,1.909c-2.4,0-4.345-1.945-4.345-4.345
			c0-2.4,1.945-4.345,4.345-4.345c1.357,0,2.568,0.622,3.365,1.596v-8.664c-1.067-0.314-2.196-0.486-3.365-0.486
			c-6.571,0-11.899,5.327-11.899,11.899c0,6.571,5.327,11.899,11.899,11.899c2.793,0,5.36-0.965,7.39-2.577
			C43.851,46.75,42.492,44.361,41.972,41.675"/>
	</g>
</g>
</svg>
