<?xml version="1.0" encoding="utf-8"?>
<!-- Generator: Adobe Illustrator 17.0.0, SVG Export Plug-In . SVG Version: 6.00 Build 0)  -->
<!DOCTYPE svg PUBLIC "-//W3C//DTD SVG 1.1//EN" "http://www.w3.org/Graphics/SVG/1.1/DTD/svg11.dtd">
<svg version="1.1" id="Capa_1" xmlns="http://www.w3.org/2000/svg" xmlns:xlink="http://www.w3.org/1999/xlink" x="0px" y="0px"
	 width="93px" height="93px" viewBox="0 0 93 93" enable-background="new 0 0 93 93" xml:space="preserve">
<path fill="#004D9C" d="M93,81c0,6.627-5.373,12-12,12H12C5.373,93,0,87.627,0,81V12C0,5.373,5.373,0,12,0h69
	c6.627,0,12,5.373,12,12V81z"/>
<g>
	<g>
		<path fill="#FFC212" d="M33.629,28.213h-2.175l-2.79,2.605l1.456,1.559c0.574-0.506,0.916-0.875,1.026-1.108h0.041v0.246
			c0,0.547-0.004,1.374-0.01,2.482c-0.007,1.108-0.01,1.942-0.01,2.503h-2.195v2.031h6.872V36.5h-2.215V28.213z"/>
		<path fill="#FFC212" d="M64.531,33.474c-0.13-0.13-0.284-0.195-0.462-0.195H39.126c-0.178,0-0.331,0.065-0.461,0.195
			c-0.13,0.13-0.195,0.284-0.195,0.462v3.938c0,0.178,0.065,0.332,0.195,0.462c0.13,0.13,0.284,0.195,0.461,0.195h24.944
			c0.178,0,0.332-0.065,0.462-0.195c0.13-0.13,0.194-0.284,0.194-0.462v-3.938C64.726,33.758,64.661,33.604,64.531,33.474z"/>
		<path fill="#FFC212" d="M33.506,58.449l1.949-2.359v-1.805h-6.831v3.118h2.174v-1.087c0.219,0,0.55-0.006,0.995-0.02
			c0.444-0.014,0.776-0.021,0.995-0.021v0.021c-0.26,0.246-0.513,0.509-0.759,0.79c-0.246,0.28-0.537,0.65-0.872,1.107
			c-0.335,0.458-0.557,0.756-0.666,0.893l0.533,1.149c1.436-0.11,2.154,0.273,2.154,1.149c0,0.383-0.147,0.673-0.441,0.871
			c-0.294,0.199-0.639,0.298-1.036,0.298c-0.779,0-1.504-0.308-2.174-0.923l-1.17,1.805c0.903,0.903,2.079,1.354,3.528,1.354
			c1.108,0,2.034-0.314,2.78-0.943c0.745-0.629,1.118-1.491,1.118-2.585c0-0.698-0.205-1.299-0.615-1.805
			C34.757,58.948,34.203,58.613,33.506,58.449z"/>
		<path fill="#FFC212" d="M33.669,49.628h-2.605c0.014-0.342,0.257-0.701,0.728-1.077c0.472-0.376,0.988-0.721,1.549-1.036
			c0.56-0.315,1.073-0.755,1.538-1.323c0.465-0.568,0.697-1.193,0.697-1.877c0-0.971-0.342-1.74-1.025-2.308
			c-0.684-0.567-1.525-0.851-2.523-0.851c-0.793,0-1.515,0.195-2.164,0.585c-0.65,0.39-1.138,0.933-1.467,1.631l1.744,1.21
			c0.479-0.793,1.033-1.19,1.661-1.19c0.342,0,0.612,0.092,0.811,0.277c0.198,0.185,0.298,0.448,0.298,0.79
			c0,0.314-0.161,0.622-0.482,0.923c-0.322,0.301-0.708,0.598-1.159,0.892c-0.451,0.294-0.903,0.619-1.354,0.974
			c-0.451,0.356-0.838,0.82-1.159,1.395c-0.321,0.574-0.482,1.21-0.482,1.908c0,0.246,0.041,0.615,0.123,1.108h7.426v-3.262v0
			h-2.154V49.628z"/>
		<path fill="#FFC212" d="M64.069,54.285H39.126c-0.191,0-0.349,0.062-0.472,0.185c-0.123,0.123-0.185,0.28-0.185,0.472v3.939
			c0,0.178,0.065,0.332,0.195,0.461c0.13,0.13,0.284,0.195,0.461,0.195h24.944c0.178,0,0.332-0.064,0.462-0.195
			c0.13-0.13,0.194-0.284,0.194-0.461v-3.939c0-0.178-0.065-0.331-0.194-0.461C64.401,54.35,64.247,54.285,64.069,54.285z"/>
		<path fill="#FFC212" d="M64.069,43.782H39.126c-0.191,0-0.349,0.061-0.472,0.185c-0.123,0.123-0.185,0.28-0.185,0.472v3.939
			c0,0.178,0.065,0.331,0.195,0.462c0.13,0.13,0.284,0.195,0.461,0.195h24.944c0.178,0,0.332-0.065,0.462-0.195
			c0.13-0.13,0.194-0.284,0.194-0.462v-3.939c0-0.178-0.065-0.332-0.194-0.461C64.401,43.847,64.247,43.782,64.069,43.782z"/>
	</g>
</g>
</svg>
