<?xml version="1.0" encoding="utf-8"?>
<!-- Generator: Adobe Illustrator 17.0.0, SVG Export Plug-In . SVG Version: 6.00 Build 0)  -->
<!DOCTYPE svg PUBLIC "-//W3C//DTD SVG 1.1//EN" "http://www.w3.org/Graphics/SVG/1.1/DTD/svg11.dtd">
<svg version="1.1" id="Capa_1" xmlns="http://www.w3.org/2000/svg" xmlns:xlink="http://www.w3.org/1999/xlink" x="0px" y="0px"
	 width="93px" height="93px" viewBox="0 0 93 93" enable-background="new 0 0 93 93" xml:space="preserve">
<path fill="#004D9C" d="M93,81c0,6.627-5.373,12-12,12H12C5.373,93,0,87.627,0,81V12C0,5.373,5.373,0,12,0h69
	c6.627,0,12,5.373,12,12V81z"/>
<g id="Play">
	<path fill="#FFC212" d="M60.233,43.925L36.046,28.686c-0.715-0.426-1.603-0.355-2.273-0.355c-2.682,0-2.67,2.071-2.67,2.596v31.147
		c0,0.444-0.012,2.596,2.67,2.596c0.671,0,1.559,0.071,2.273-0.355l24.186-15.239c1.985-1.181,1.642-2.575,1.642-2.575
		S62.218,45.106,60.233,43.925z"/>
</g>
</svg>
