<?xml version="1.0" encoding="utf-8"?>
<!-- Generator: Adobe Illustrator 17.0.0, SVG Export Plug-In . SVG Version: 6.00 Build 0)  -->
<!DOCTYPE svg PUBLIC "-//W3C//DTD SVG 1.1//EN" "http://www.w3.org/Graphics/SVG/1.1/DTD/svg11.dtd">
<svg version="1.1" id="Capa_1" xmlns="http://www.w3.org/2000/svg" xmlns:xlink="http://www.w3.org/1999/xlink" x="0px" y="0px"
	 width="93px" height="93px" viewBox="0 0 93 93" enable-background="new 0 0 93 93" xml:space="preserve">
<path fill="#004D9C" d="M93,81c0,6.627-5.373,12-12,12H12C5.373,93,0,87.627,0,81V12C0,5.373,5.373,0,12,0h69
	c6.627,0,12,5.373,12,12V81z"/>
<g>
	<g>
		<path fill="#FFC111" d="M16.018,65.026c0-0.396-0.24-0.66-0.744-0.804c-0.48-0.145-1.032-0.288-1.619-0.444
			c-1.595-0.407-2.387-1.151-2.387-2.23c0.036-1.715,1.055-2.555,3.07-2.543c1.919,0,2.915,0.84,3.01,2.531h-0.936
			c-0.348,0-0.587-0.168-0.744-0.48c-0.276-0.467-0.768-0.695-1.475-0.695c-0.863,0.012-1.295,0.336-1.331,0.96
			c0,0.516,0.516,0.887,1.583,1.127c0.612,0.144,1.259,0.324,1.943,0.563c0.912,0.313,1.343,0.983,1.295,2.016
			c-0.096,1.595-1.175,2.387-3.238,2.387c-2.159,0-3.25-0.9-3.298-2.675h1.619c0.06,0.863,0.612,1.295,1.679,1.295
			S16.03,65.697,16.018,65.026z"/>
		<path fill="#FFC111" d="M18.552,60.013c0-0.563,0.276-0.863,0.839-0.876h5.062v1.416h-4.258v1.751h3.178v0.539
			c0.012,0.564-0.276,0.84-0.863,0.84h-2.315v2.111h4.258v1.499h-5.901V60.013z"/>
		<path fill="#FFC111" d="M26.112,59.137h1.619l1.643,6.213l1.595-6.213h2.482v8.156h-1.571v-6.585l-1.667,6.585h-1.703
			l-1.667-6.585v6.585h-1.571v-7.28C25.273,59.545,25.644,59.137,26.112,59.137z"/>
		<path fill="#FFC111" d="M34.285,60.013c0-0.575,0.276-0.876,0.839-0.876h0.828v8.156h-1.667V60.013z"/>
		<path fill="#FFC111" d="M40.738,63.683h-2.314v3.61H36.78v-7.28c0-0.468,0.372-0.876,0.839-0.876h5.061v1.416h-4.257v1.751h3.19
			v0.539C41.613,63.311,41.206,63.683,40.738,63.683z"/>
		<path fill="#FFC111" d="M43.404,60.013c0-0.575,0.276-0.876,0.839-0.876h0.828v8.156h-1.667V60.013z"/>
		<path fill="#FFC111" d="M46.763,59.137h0.899l3.322,5.602v-5.602h1.644v8.156h-1.739l-3.322-5.602v5.602h-1.643v-7.28
			C45.924,59.545,46.296,59.137,46.763,59.137z"/>
		<path fill="#FFC111" d="M58.341,59.137l2.927,8.156h-1.764l-0.539-1.667h-3.154l-0.54,1.667h-1.787l2.723-7.616
			c0.12-0.359,0.384-0.54,0.791-0.54H58.341z M56.254,64.246h2.243l-1.128-3.466L56.254,64.246z"/>
		<path fill="#FFC111" d="M62.915,59.137h0.827v6.657h3.982v1.499h-5.649v-7.28C62.075,59.545,62.447,59.137,62.915,59.137z"/>
		<path fill="#FFC111" d="M68.472,60.013c0-0.563,0.275-0.863,0.839-0.876h5.062v1.416h-4.258v1.751h3.179v0.539
			c0.012,0.564-0.276,0.84-0.863,0.84h-2.315v2.111h4.258v1.499h-5.9V60.013z"/>
		<path fill="#FFC111" d="M80.181,65.026c0-0.396-0.24-0.66-0.743-0.804c-0.48-0.145-1.032-0.288-1.619-0.444
			c-1.596-0.407-2.387-1.151-2.387-2.23c0.036-1.715,1.055-2.555,3.07-2.543c1.919,0,2.914,0.84,3.01,2.531h-0.936
			c-0.348,0-0.587-0.168-0.743-0.48c-0.276-0.467-0.768-0.695-1.476-0.695c-0.863,0.012-1.295,0.336-1.331,0.96
			c0,0.516,0.516,0.887,1.583,1.127c0.612,0.144,1.26,0.324,1.943,0.563c0.911,0.313,1.343,0.983,1.295,2.016
			c-0.096,1.595-1.175,2.387-3.238,2.387c-2.158,0-3.25-0.9-3.298-2.675h1.619c0.06,0.863,0.611,1.295,1.679,1.295
			S80.193,65.697,80.181,65.026z"/>
	</g>
	<g>
		<path fill="#FFC212" d="M50.17,37.534l0-9.711c-0.469-1.67-2.735-2.236-3.774-2.236c-1.051,0-3.274,0.579-3.752,2.242l0.005,9.705
			c0,0-0.009,1.489-0.006,1.949c0,4.706,3.687,8.373,3.687,8.373l0.056,0.053c2.204-2.059,3.626-4.945,3.764-8.166h0.001
			l0.011-0.517c0,0,0.016-0.665,0-1.691H50.17z"/>
		<path fill="#FFC212" d="M54.542,27.34c-1.169,0-2.297,0.171-3.365,0.486v8.664c0.797-0.974,2.008-1.596,3.365-1.596
			c2.4,0,4.345,1.945,4.345,4.345c0,2.4-1.945,4.345-4.345,4.345c-1.497,0-2.817-0.757-3.598-1.909
			c-0.52,2.686-1.879,5.075-3.792,6.886c2.03,1.612,4.597,2.577,7.39,2.577c6.571,0,11.899-5.327,11.899-11.899
			C66.441,32.668,61.113,27.34,54.542,27.34"/>
		<path fill="#004D9C" d="M43.817,30.613c-0.09-0.249-0.139-0.516-0.139-0.794c0-1.38,1.203-2.499,2.686-2.499
			c1.484,0,2.686,1.119,2.686,2.499c0,0.44-0.185,0.839-0.338,1.213l-1.878,4.327c0,0-0.079,0.337-0.479,0.337
			c-0.4,0-0.479-0.337-0.479-0.337L43.817,30.613z"/>
		<path fill="#FFFFFF" d="M47.916,30.101c0,0.857-0.695,1.552-1.552,1.552c-0.857,0-1.552-0.695-1.552-1.552
			c0-0.857,0.695-1.552,1.552-1.552C47.221,28.55,47.916,29.244,47.916,30.101"/>
		<path fill="#FFC212" d="M41.912,41.675c-0.781,1.152-2.101,1.909-3.598,1.909c-2.4,0-4.345-1.945-4.345-4.345
			c0-2.4,1.945-4.345,4.345-4.345c1.357,0,2.568,0.622,3.365,1.596v-8.664c-1.067-0.314-2.196-0.486-3.365-0.486
			c-6.571,0-11.899,5.327-11.899,11.899c0,6.571,5.327,11.899,11.899,11.899c2.793,0,5.36-0.965,7.39-2.577
			C43.791,46.75,42.432,44.361,41.912,41.675"/>
	</g>
</g>
</svg>
